<svg xmlns="http://www.w3.org/2000/svg" width="16" height="16" viewBox="0 0 16 16" fill="none">
    <path d="M6.5 1.5H9.5L10 3.5C10.4 3.7 10.8 3.9 11.1 4.2L13 3.5L14.5 6L13.2 7.2C13.3 7.6 13.3 8 13.2 8.4L14.5 9.6L13 12.1L11.1 11.4C10.8 11.7 10.4 11.9 10 12.1L9.5 14.1H6.5L6 12.1C5.6 11.9 5.2 11.7 4.9 11.4L3 12.1L1.5 9.6L2.8 8.4C2.7 8 2.7 7.6 2.8 7.2L1.5 6L3 3.5L4.9 4.2C5.2 3.9 5.6 3.7 6 3.5L6.5 1.5Z"
          stroke="currentColor" stroke-width="1.2" stroke-linecap="round" stroke-linejoin="round"/>
    <circle cx="8" cy="8" r="2" stroke="currentColor" stroke-width="1.2"/>
</svg>
